<svg xmlns="http://www.w3.org/2000/svg" width="36" height="36" viewBox="0 0 36 36" fill="none">
    <mask id="mask0_1138_1206" style="mask-type:luminance" maskUnits="userSpaceOnUse" x="0" y="-1" width="36" height="37">
      <path fill-rule="evenodd" clip-rule="evenodd" d="M0 17.9995C0 8.05839 8.05888 -0.000488281 18 -0.000488281C27.9411 -0.000488281 36 8.05839 36 17.9995C36 27.9406 27.9411 35.9995 18 35.9995C8.05888 35.9995 0 27.9406 0 17.9995Z" fill="white"/>
    </mask>
    <g mask="url(#mask0_1138_1206)">
      <path fill-rule="evenodd" clip-rule="evenodd" d="M0 17.9995C0 8.05839 8.05888 -0.000488281 18 -0.000488281C27.9411 -0.000488281 36 8.05839 36 17.9995C36 27.9406 27.9411 35.9995 18 35.9995C8.05888 35.9995 0 27.9406 0 17.9995Z" fill="url(#paint0_linear_1138_1206)"/>
      <path fill-rule="evenodd" clip-rule="evenodd" d="M18.0008 8.39941C15.3936 8.39941 15.0664 8.41081 14.0424 8.45741C13.0204 8.50422 12.3227 8.66602 11.7123 8.90342C11.0809 9.14862 10.5453 9.47663 10.0117 10.0104C9.47771 10.544 9.14971 11.0796 8.90371 11.7108C8.66571 12.3215 8.5037 13.0193 8.4577 14.0409C8.4119 15.0649 8.3999 15.3923 8.3999 17.9995C8.3999 20.6067 8.4115 20.9329 8.4579 21.957C8.5049 22.979 8.66671 23.6766 8.90391 24.287C9.14931 24.9184 9.47731 25.454 10.0111 25.9876C10.5445 26.5216 11.0801 26.8504 11.7111 27.0956C12.3219 27.333 13.0198 27.4948 14.0416 27.5416C15.0656 27.5882 15.3926 27.5996 17.9996 27.5996C20.607 27.5996 20.9332 27.5882 21.9572 27.5416C22.9793 27.4948 23.6777 27.333 24.2885 27.0956C24.9197 26.8504 25.4545 26.5216 25.9879 25.9876C26.5219 25.454 26.8499 24.9184 27.0959 24.2872C27.3319 23.6766 27.4939 22.9788 27.5419 21.9572C27.5879 20.9331 27.5999 20.6067 27.5999 17.9995C27.5999 15.3923 27.5879 15.0651 27.5419 14.0411C27.4939 13.0191 27.3319 12.3215 27.0959 11.711C26.8499 11.0796 26.5219 10.544 25.9879 10.0104C25.4539 9.47643 24.9199 9.14842 24.2879 8.90342C23.6759 8.66602 22.9779 8.50422 21.9558 8.45741C20.9318 8.41081 20.6058 8.39941 17.9978 8.39941H18.0008ZM17.1397 10.1294C17.3953 10.129 17.6805 10.1294 18.0009 10.1294C20.5642 10.1294 20.868 10.1386 21.8802 10.1846C22.8162 10.2274 23.3242 10.3838 23.6626 10.5152C24.1106 10.6892 24.43 10.8972 24.7658 11.2333C25.1018 11.5693 25.3098 11.8893 25.4842 12.3373C25.6156 12.6753 25.7722 13.1833 25.8148 14.1193C25.8608 15.1313 25.8708 15.4353 25.8708 17.9973C25.8708 20.5593 25.8608 20.8634 25.8148 21.8754C25.772 22.8114 25.6156 23.3194 25.4842 23.6574C25.3102 24.1054 25.1018 24.4244 24.7658 24.7602C24.4298 25.0962 24.1108 25.3042 23.6626 25.4782C23.3246 25.6102 22.8162 25.7662 21.8802 25.809C20.8682 25.855 20.5642 25.865 18.0009 25.865C15.4375 25.865 15.1337 25.855 14.1217 25.809C13.1857 25.7658 12.6777 25.6094 12.3391 25.478C11.8911 25.304 11.5711 25.096 11.2351 24.76C10.8991 24.424 10.6911 24.1048 10.5167 23.6566C10.3853 23.3186 10.2287 22.8106 10.1861 21.8746C10.1401 20.8626 10.1309 20.5585 10.1309 17.9949C10.1309 15.4313 10.1401 15.1289 10.1861 14.1169C10.2289 13.1809 10.3853 12.6729 10.5167 12.3345C10.6907 11.8865 10.8991 11.5665 11.2351 11.2305C11.5711 10.8944 11.8911 10.6864 12.3391 10.512C12.6775 10.38 13.1857 10.224 14.1217 10.181C15.0073 10.141 15.3505 10.129 17.1397 10.127V10.1294ZM23.1254 11.7235C22.4894 11.7235 21.9734 12.2389 21.9734 12.8751C21.9734 13.5111 22.4894 14.0271 23.1254 14.0271C23.7614 14.0271 24.2774 13.5111 24.2774 12.8751C24.2774 12.2391 23.7614 11.7231 23.1254 11.7231V11.7235ZM18.0009 13.0695C15.2782 13.0695 13.0708 15.2769 13.0708 17.9995C13.0708 20.7222 15.2782 22.9286 18.0009 22.9286C20.7235 22.9286 22.9301 20.7222 22.9301 17.9995C22.9301 15.2769 20.7233 13.0695 18.0007 13.0695H18.0009ZM18.001 14.7995C19.7682 14.7995 21.201 16.2321 21.201 17.9995C21.201 19.7667 19.7682 21.1996 18.001 21.1996C16.2335 21.1996 14.8009 19.7667 14.8009 17.9995C14.8009 16.2321 16.2335 14.7995 18.001 14.7995Z" fill="white"/>
    </g>
    <defs>
      <linearGradient id="paint0_linear_1138_1206" x1="29.4" y1="3.59937" x2="7.5" y2="32.9994" gradientUnits="userSpaceOnUse">
        <stop stop-color="#9454D4"/>
        <stop offset="0.520833" stop-color="#E04380"/>
        <stop offset="1" stop-color="#F89B4E"/>
      </linearGradient>
    </defs>
  </svg>