<svg xmlns="http://www.w3.org/2000/svg" width="180" height="45" viewBox="0 0 180 45" fill="none">
    <g clip-path="url(#clip0_1124_2170)">
        <path
            d="M67.6578 20.0881C67.6578 23.1307 65.1807 25.1591 61.9751 25.1591H59.9352V29.6506H56.1467V15.0171H61.9751C65.1807 15.0171 67.6578 16.9006 67.6578 20.0881ZM59.9352 18.3495V21.8267H61.9751C62.9951 21.8267 63.7236 21.1023 63.7236 20.0881C63.7236 19.0739 62.9951 18.3495 61.9751 18.3495H59.9352Z"
            fill="#0E2149" />
        <path
            d="M83.6858 18.4944H77.2745V20.5228H81.9372V23.7103H77.2745V26.1733H83.9772V29.6506H73.4861V15.0171H83.6858V18.4944Z"
            fill="#0E2149" />
        <path
            d="M103.939 18.6392L101.025 20.6676C100.151 19.2188 98.9852 18.2046 97.2367 18.2046C94.9054 18.2046 93.1569 19.7983 93.1569 22.2614C93.1569 24.7245 94.7597 26.3182 97.2367 26.3182C98.9852 26.3182 100.151 25.4489 101.025 23.8551L103.939 25.8836C102.628 28.3466 100.151 29.7955 97.2367 29.7955C92.8654 29.7955 89.3684 26.4631 89.3684 22.2614C89.3684 17.9148 92.8654 14.7273 97.3824 14.7273C100.151 14.7273 102.628 16.1762 103.939 18.6392Z"
            fill="#0E2149" />
        <path
            d="M123.027 29.6506H119.239V23.8552H113.848V29.6506H110.059V15.0171H113.848V20.3779H119.239V15.0171H123.027V29.6506Z"
            fill="#0E2149" />
        <path
            d="M145.175 22.4056C145.175 26.7522 141.678 29.9397 137.161 29.9397C132.79 29.9397 129.293 26.7522 129.293 22.4056C129.293 18.059 132.79 14.8715 137.161 14.8715C141.678 14.7266 145.175 18.059 145.175 22.4056ZM133.227 22.4056C133.227 24.8687 134.83 26.4624 137.307 26.4624C139.638 26.4624 141.387 24.8687 141.387 22.4056C141.387 19.9425 139.638 18.3488 137.307 18.3488C134.83 18.2039 133.227 19.9425 133.227 22.4056Z"
            fill="#0E2149" />
        <path d="M162.806 18.4944H158.289V29.6506H154.501V18.4944H150.129V15.0171H162.806V18.4944Z"
            fill="#0E2149" />
        <path
            d="M175.337 28.4915H170.092L169.509 29.6506H165.429L172.132 14.7273H173.297L180 29.6506H175.92L175.337 28.4915ZM172.714 21.9716L171.403 25.304H174.026L172.714 21.9716Z"
            fill="#0E2149" />
        <path fill-rule="evenodd" clip-rule="evenodd"
            d="M26.2277 2.31818H18.9423L16.4652 0L14.1338 2.31818H10.7825V5.65057L5.68268 10.7216H2.33136V14.054L0 16.3722L2.33136 18.6903V25.9347L0 28.2528L2.33136 30.571V33.9034H5.68268L10.7825 38.9744V42.3068H14.1338L16.4652 44.625L18.7965 42.3068H26.082L28.4134 44.625L30.7447 42.3068H34.0961V38.9744L39.1959 33.9034H42.5472V30.571L44.8786 28.2528L42.5472 25.9347V18.6903L44.8786 16.3722L42.5472 14.054V10.8665H39.1959L34.3875 5.79545V2.31818H31.0362L28.5591 0L26.2277 2.31818ZM27.102 4.78125L28.5591 3.33239L30.0162 4.78125H32.0561V6.80966L38.6131 13.3295H40.653V15.358L42.1101 16.8068L40.653 18.2557V27.3835L42.1101 28.8324L40.653 30.2812V32.3097H38.6131L32.0561 38.8295V40.858H30.0162L28.5591 42.3068L27.102 40.858H17.9223L16.4652 42.3068L15.0081 40.858H12.9682V38.8295L6.41122 32.3097H4.37129V30.2812L2.91419 28.8324L4.37129 27.3835V18.2557L2.91419 16.8068L4.37129 15.358V13.1847H6.41122L12.9682 6.66477V4.78125H15.0081L16.4652 3.33239L17.9223 4.78125H27.102ZM17.9223 6.375V7.53409C17.9223 8.11364 17.9223 8.69318 17.7766 9.27273C17.7766 9.70739 17.6309 10.142 17.4852 10.4318C17.1937 11.1562 16.9023 11.8807 16.6109 12.6051C16.4652 12.8949 16.1738 13.3295 16.0281 13.6193C15.2995 14.6335 14.4253 15.5028 13.4053 16.2273C13.8424 16.9517 14.1338 17.6761 14.2795 18.4006C15.7366 17.3864 17.048 16.0824 18.068 14.6335C18.2137 14.3437 18.5051 13.9091 18.6508 13.6193C18.9423 12.8949 19.2337 12.1705 19.5251 11.446C19.6708 11.0114 19.6708 10.7216 19.8165 10.2869C19.9622 9.70739 19.9622 9.27273 20.1079 8.69318H24.9164C24.9164 9.27273 25.0621 9.70739 25.2078 10.2869C25.9363 9.99716 26.6649 9.70739 27.3934 9.41761C27.2477 8.83807 27.2477 8.25852 27.2477 7.67898V6.375H17.9223ZM30.0162 8.69318C29.5791 9.12784 29.1419 9.5625 28.7048 9.85227C28.4134 10.142 27.9763 10.2869 27.6848 10.4318C26.9563 10.8665 26.2277 11.1562 25.4992 11.3011C25.0621 11.446 24.7706 11.446 24.3335 11.5909C23.7507 11.7358 23.1678 11.7358 22.585 11.7358C22.0022 11.7358 21.4193 11.7358 20.6908 11.5909C20.3994 12.3153 20.1079 13.0398 19.8165 13.7642C20.6908 13.9091 21.565 14.054 22.4393 14.054C23.3135 14.054 24.1878 13.9091 25.0621 13.7642C25.4992 13.6193 25.7906 13.6193 26.2277 13.4744C26.9563 13.1847 27.6848 12.8949 28.4134 12.6051C28.7048 12.4602 29.1419 12.1705 29.4334 12.0256C29.8705 11.7358 30.3076 11.446 30.7447 11.1562L34.2418 14.6335C33.9504 15.0682 33.5132 15.5028 33.3675 15.9375C34.0961 16.3722 34.8246 16.6619 35.5532 16.8068C35.8446 16.3722 36.2817 15.9375 36.7188 15.5028L37.5931 14.6335L31.0362 8.11364L30.0162 8.69318ZM7.5769 14.3437L8.45116 15.2131C8.88829 15.6477 9.32542 16.0824 9.61684 16.517C9.90826 16.8068 10.054 17.2415 10.1997 17.5312C10.6368 18.2557 10.9282 18.9801 11.0739 19.7045C11.2196 20.1392 11.2196 20.429 11.3654 20.8636C11.5111 21.4432 11.5111 22.0227 11.5111 22.6023C11.5111 23.1818 11.5111 23.7614 11.3654 24.4858C12.0939 24.7756 12.8225 25.0653 13.551 25.3551C13.6967 24.4858 13.8424 23.6165 13.8424 22.7472C13.8424 21.8778 13.6967 21.0085 13.551 20.1392C13.4053 19.7045 13.4053 19.4148 13.2596 18.9801C12.9682 18.2557 12.6767 17.5312 12.3853 16.8068C12.2396 16.517 11.9482 16.0824 11.8025 15.7926C11.5111 15.358 11.2196 14.9233 10.9282 14.4886L14.4253 11.0114C14.8624 11.3011 15.2995 11.5909 15.7366 11.8807C16.1738 11.1562 16.4652 10.4318 16.6109 9.70739C16.1738 9.41761 15.7366 8.98295 15.2995 8.5483L14.4253 7.67898L7.5769 14.3437ZM26.9563 14.4886C27.9763 15.9375 29.2876 17.2415 30.7447 18.2557C31.0362 18.4006 31.4733 18.6903 31.7647 18.8352C32.4933 19.125 33.2218 19.4148 33.9504 19.7045C34.3875 19.8494 34.6789 19.8494 35.116 19.9943C35.6989 20.1392 36.136 20.1392 36.7188 20.2841V25.0653C36.136 25.0653 35.6989 25.2102 35.116 25.3551C35.2617 26.0795 35.6989 26.804 35.9903 27.5284C36.5731 27.3835 37.156 27.3835 37.7388 27.3835H38.9045V18.1108H37.7388C37.156 18.1108 36.5731 18.1108 35.9903 17.9659C35.5532 17.9659 35.116 17.821 34.8246 17.6761C34.0961 17.5312 33.3675 17.0966 32.639 16.8068C32.3475 16.6619 31.9104 16.3722 31.619 16.2273C30.599 15.5028 29.7248 14.6335 28.9962 13.6193C28.4134 13.9091 27.6848 14.1989 26.9563 14.4886ZM19.088 16.8068V28.5426H21.4193V25.0653H23.1678C25.4992 25.0653 27.2477 23.1818 27.2477 21.0085C27.2477 18.6903 25.3535 16.9517 23.1678 16.9517H19.088V16.8068ZM21.4193 19.125H23.1678C24.1878 19.125 24.9164 19.8494 24.9164 20.8636C24.9164 21.8778 24.1878 22.6023 23.1678 22.6023H21.4193V19.125ZM7.28548 17.9659H6.1198V27.2386H7.28548C7.86832 27.2386 8.45116 27.2386 9.034 27.3835C9.47113 27.3835 9.90825 27.5284 10.1997 27.6733C10.9282 27.9631 11.6568 28.2528 12.3853 28.5426C12.6767 28.6875 13.1139 28.9773 13.4053 29.1222C14.4253 29.8466 15.2995 30.7159 16.0281 31.7301C16.7566 31.4403 17.4852 31.0057 18.2137 30.8608C17.1937 29.4119 15.8824 28.108 14.4253 27.0937C14.1338 26.9489 13.6967 26.6591 13.4053 26.5142C12.6767 26.2244 11.9482 25.9347 11.2196 25.6449C10.7825 25.5 10.4911 25.5 10.054 25.3551C9.47113 25.2102 9.034 25.2102 8.45116 25.0653V20.2841C9.034 20.2841 9.47113 20.1392 10.054 19.9943C9.76255 19.2699 9.47113 18.5455 9.17971 17.821C8.45116 17.9659 7.86832 17.9659 7.28548 17.9659ZM31.4733 25.3551C31.619 25.7898 31.619 26.0795 31.7647 26.5142C32.0561 27.2386 32.3475 27.9631 32.639 28.6875C32.7847 28.9773 33.0761 29.4119 33.2218 29.7017C33.5132 30.1364 33.8046 30.571 34.0961 31.0057L30.599 34.483C30.1619 34.1932 29.7248 33.7585 29.2876 33.6136C28.8505 34.3381 28.5591 35.0625 28.4134 35.7869C28.8505 36.0767 29.2876 36.5114 29.7248 36.946L30.599 37.8153L37.156 31.2955L36.2817 30.4261C35.8446 29.9915 35.4075 29.5568 35.116 29.1222C34.8246 28.8324 34.6789 28.3977 34.5332 28.108C34.0961 27.3835 33.8046 26.6591 33.6589 25.9347C33.5132 25.5 33.5132 25.2102 33.3675 24.7756C33.2218 23.6165 33.2218 22.3125 33.3675 21.1534C32.639 20.8636 31.9104 20.5739 31.1819 20.2841C31.1819 21.733 31.1819 23.6165 31.4733 25.3551ZM26.9563 30.8608C26.8106 31.1506 26.5192 31.5852 26.3735 31.875C26.082 32.5994 25.7906 33.3239 25.4992 34.0483C25.3535 34.3381 25.3535 34.7727 25.2078 35.0625C25.0621 35.642 25.0621 36.0767 24.9164 36.6562H20.1079C20.1079 36.0767 19.9622 35.642 19.8165 35.0625C19.088 35.3523 18.3594 35.642 17.6309 35.9318C17.7766 36.5114 17.7766 37.0909 17.7766 37.6705V38.8295H27.102V37.6705C27.102 37.0909 27.102 36.5114 27.2477 35.9318C27.2477 35.4972 27.3934 35.0625 27.5391 34.7727C27.8305 34.0483 28.122 33.3239 28.4134 32.5994C28.5591 32.3097 28.8505 31.875 28.9962 31.5852C29.7248 30.571 30.599 29.7017 31.619 28.9773C31.1819 28.2528 30.8905 27.5284 30.7447 26.804C29.2876 28.108 27.9763 29.4119 26.9563 30.8608ZM8.45116 30.1364L7.5769 31.0057L14.1338 37.5256L15.0081 36.6562C15.4452 36.2216 15.8824 35.7869 16.3195 35.4972C16.6109 35.2074 17.048 35.0625 17.3395 34.9176C18.068 34.483 18.7965 34.1932 19.5251 34.0483C19.9622 33.9034 20.2536 33.9034 20.6908 33.7585C21.2736 33.6136 21.8564 33.6136 22.585 33.6136C23.1678 33.6136 23.7507 33.6136 24.3335 33.7585C24.6249 33.0341 24.9164 32.3097 25.2078 31.5852C24.3335 31.4403 23.4593 31.2955 22.585 31.2955C21.7107 31.2955 20.8365 31.4403 19.9622 31.5852C19.5251 31.7301 19.2337 31.7301 18.7965 31.875C18.068 32.1648 17.3395 32.4545 16.6109 32.7443C16.3195 32.8892 15.8824 33.179 15.5909 33.3239C15.1538 33.6136 14.7167 33.9034 14.2795 34.1932L10.7825 30.8608C11.0739 30.4261 11.5111 29.9915 11.6568 29.5568C10.9282 29.1222 10.1997 28.8324 9.47113 28.6875C9.32542 29.267 8.88829 29.7017 8.45116 30.1364Z"
            fill="url(#paint0_linear_1124_2170)" />
    </g>
    <defs>
        <linearGradient id="paint0_linear_1124_2170" x1="-0.246832" y1="22.6582" x2="45.3262"
            y2="22.6582" gradientUnits="userSpaceOnUse">
            <stop stop-color="#5B1D14" />
            <stop offset="0.1488" stop-color="#924E20" />
            <stop offset="0.3591" stop-color="#D09F51" />
            <stop offset="0.7202" stop-color="#DCBA93" />
            <stop offset="0.8591" stop-color="#BE864A" />
            <stop offset="0.9683" stop-color="#9F5805" />
        </linearGradient>
        <clipPath id="clip0_1124_2170">
            <rect width="180" height="45" fill="white" />
        </clipPath>
    </defs>
</svg>