<svg xmlns="http://www.w3.org/2000/svg" width="36" height="36" viewBox="0 0 36 36" fill="none">
    <path fill-rule="evenodd" clip-rule="evenodd" d="M0 17.9995C0 8.05839 8.05888 -0.000488281 18 -0.000488281C27.9411 -0.000488281 36 8.05839 36 17.9995C36 27.9406 27.9411 35.9995 18 35.9995C8.05888 35.9995 0 27.9406 0 17.9995Z" fill="#4C6C91"/>
    <path fill-rule="evenodd" clip-rule="evenodd" d="M18.9415 23.9068C18.9415 23.9068 19.288 23.869 19.4655 23.6818C19.628 23.5104 19.6223 23.1868 19.6223 23.1868C19.6223 23.1868 19.6007 21.676 20.3154 21.453C21.0197 21.2336 21.924 22.914 22.8837 23.5602C23.6087 24.0487 24.159 23.9418 24.159 23.9418L26.7236 23.9068C26.7236 23.9068 28.0646 23.8256 27.4288 22.7905C27.3763 22.7057 27.0579 22.0245 25.5225 20.6252C23.9139 19.1605 24.1299 19.3974 26.0662 16.8634C27.2457 15.3203 27.7171 14.3782 27.5697 13.9754C27.4298 13.5901 26.5621 13.6924 26.5621 13.6924L23.6754 13.7099C23.6754 13.7099 23.4613 13.6813 23.3026 13.7744C23.1476 13.8657 23.0471 14.0786 23.0471 14.0786C23.0471 14.0786 22.5907 15.2724 21.9813 16.2882C20.6957 18.4304 20.182 18.5438 19.9717 18.4111C19.4824 18.1004 19.6045 17.1648 19.6045 16.5002C19.6045 14.4234 19.9256 13.5578 18.98 13.3338C18.6664 13.2592 18.4353 13.2103 17.6324 13.202C16.6023 13.1919 15.7308 13.2057 15.2369 13.4426C14.9082 13.6002 14.6546 13.9524 14.8096 13.9726C15.0002 13.9975 15.4322 14.0869 15.6613 14.393C15.9571 14.7884 15.9468 15.6752 15.9468 15.6752C15.9468 15.6752 16.1168 18.1198 15.5496 18.423C15.1608 18.6314 14.6274 18.2064 13.4808 16.2624C12.8939 15.2668 12.4506 14.1662 12.4506 14.1662C12.4506 14.1662 12.3652 13.9606 12.2121 13.85C12.0271 13.7164 11.7689 13.6749 11.7689 13.6749L9.02583 13.6924C9.02583 13.6924 8.61358 13.7035 8.46239 13.8795C8.3281 14.0353 8.45206 14.3589 8.45206 14.3589C8.45206 14.3589 10.5997 19.2914 13.0319 21.7774C15.2622 24.0561 17.794 23.9068 17.794 23.9068H18.9415Z" fill="white"/>
  </svg>